<svg width="36" height="36" viewBox="0 0 36 36" fill="none" xmlns="http://www.w3.org/2000/svg">
<path d="M33.2308 8.64H26.3077C26.3077 6.34853 25.4324 4.15091 23.8744 2.5306C22.3164 0.910283 20.2033 0 18 0C15.7967 0 13.6836 0.910283 12.1256 2.5306C10.5676 4.15091 9.69231 6.34853 9.69231 8.64H2.76923C2.03479 8.64 1.33042 8.94343 0.811089 9.48353C0.291757 10.0236 0 10.7562 0 11.52V33.12C0 33.8838 0.291757 34.6164 0.811089 35.1565C1.33042 35.6966 2.03479 36 2.76923 36H33.2308C33.9652 36 34.6696 35.6966 35.1889 35.1565C35.7082 34.6164 36 33.8838 36 33.12V11.52C36 10.7562 35.7082 10.0236 35.1889 9.48353C34.6696 8.94343 33.9652 8.64 33.2308 8.64ZM18 2.88C19.4689 2.88 20.8776 3.48686 21.9163 4.56706C22.9549 5.64727 23.5385 7.11235 23.5385 8.64H12.4615C12.4615 7.11235 13.0451 5.64727 14.0837 4.56706C15.1224 3.48686 16.5311 2.88 18 2.88ZM33.2308 33.12H2.76923V11.52H9.69231V14.4C9.69231 14.7819 9.83819 15.1482 10.0979 15.4182C10.3575 15.6883 10.7097 15.84 11.0769 15.84C11.4441 15.84 11.7963 15.6883 12.056 15.4182C12.3157 15.1482 12.4615 14.7819 12.4615 14.4V11.52H23.5385V14.4C23.5385 14.7819 23.6843 15.1482 23.944 15.4182C24.2037 15.6883 24.5559 15.84 24.9231 15.84C25.2903 15.84 25.6425 15.6883 25.9021 15.4182C26.1618 15.1482 26.3077 14.7819 26.3077 14.4V11.52H33.2308V33.12Z" fill="white"></path>
</svg>
