<svg width="30" height="29" viewBox="0 0 30 29" fill="none" xmlns="http://www.w3.org/2000/svg">
<path d="M8.7 0H21.3C26.1 0 30 3.6785 30 8.20589V20.0903C30 22.2666 29.0834 24.3538 27.4518 25.8927C25.8203 27.4316 23.6074 28.2962 21.3 28.2962H8.7C3.9 28.2962 0 24.6177 0 20.0903V8.20589C0 6.02955 0.916605 3.94235 2.54817 2.40345C4.17974 0.864547 6.39262 0 8.7 0ZM8.4 2.82962C6.96783 2.82962 5.59432 3.36623 4.58162 4.32141C3.56893 5.27659 3 6.5721 3 7.92293V20.3732C3 23.1887 5.415 25.4666 8.4 25.4666H21.6C23.0322 25.4666 24.4057 24.9299 25.4184 23.9748C26.4311 23.0196 27 21.7241 27 20.3732V7.92293C27 5.10746 24.585 2.82962 21.6 2.82962H8.4ZM22.875 4.95183C23.3723 4.95183 23.8492 5.13815 24.2008 5.46981C24.5525 5.80147 24.75 6.2513 24.75 6.72034C24.75 7.18938 24.5525 7.63921 24.2008 7.97087C23.8492 8.30253 23.3723 8.48885 22.875 8.48885C22.3777 8.48885 21.9008 8.30253 21.5492 7.97087C21.1975 7.63921 21 7.18938 21 6.72034C21 6.2513 21.1975 5.80147 21.5492 5.46981C21.9008 5.13815 22.3777 4.95183 22.875 4.95183ZM15 7.07404C16.9891 7.07404 18.8968 7.81934 20.3033 9.14598C21.7098 10.4726 22.5 12.2719 22.5 14.1481C22.5 16.0242 21.7098 17.8235 20.3033 19.1502C18.8968 20.4768 16.9891 21.2221 15 21.2221C13.0109 21.2221 11.1032 20.4768 9.6967 19.1502C8.29018 17.8235 7.5 16.0242 7.5 14.1481C7.5 12.2719 8.29018 10.4726 9.6967 9.14598C11.1032 7.81934 13.0109 7.07404 15 7.07404ZM15 9.90366C13.8065 9.90366 12.6619 10.3508 11.818 11.1468C10.9741 11.9428 10.5 13.0224 10.5 14.1481C10.5 15.2738 10.9741 16.3534 11.818 17.1493C12.6619 17.9453 13.8065 18.3925 15 18.3925C16.1935 18.3925 17.3381 17.9453 18.182 17.1493C19.0259 16.3534 19.5 15.2738 19.5 14.1481C19.5 13.0224 19.0259 11.9428 18.182 11.1468C17.3381 10.3508 16.1935 9.90366 15 9.90366Z" fill="white"/>
</svg>
