<svg width="29" height="31" viewBox="0 0 29 31" fill="none" xmlns="http://www.w3.org/2000/svg">
<path d="M23.0077 4.7388C21.7434 3.42743 21.0467 1.74333 21.0472 0H15.3323V20.8373C15.2882 21.9649 14.7642 23.0329 13.8707 23.8165C12.9772 24.6002 11.7839 25.0382 10.5421 25.0383C7.91582 25.0383 5.73342 23.089 5.73342 20.6692C5.73342 17.7789 8.80357 15.6111 11.9662 16.5018V11.1916C5.58546 10.4186 0 14.9222 0 20.6692C0 26.265 5.10459 30.2476 10.5236 30.2476C16.331 30.2476 21.0472 25.9626 21.0472 20.6692V10.0993C23.3646 11.6115 26.1469 12.4228 29 12.4183V7.22582C29 7.22582 25.523 7.37706 23.0077 4.7388Z" fill="white"></path>
</svg>
